<svg width="408" height="363" viewBox="0 0 408 363" fill="none" xmlns="http://www.w3.org/2000/svg">
<g clip-path="url(#clip0_2_182)">
<path d="M389.926 362.517L389.383 362.312C389.264 362.267 377.382 357.687 371.816 347.301C366.25 336.915 368.975 324.409 369.003 324.284L369.132 323.715L369.675 323.92C369.794 323.965 381.676 328.546 387.242 338.931C392.808 349.318 390.083 361.823 390.054 361.948L389.926 362.517ZM372.707 346.818C377.413 355.599 386.802 360.1 389.181 361.128C389.634 358.562 391.052 348.188 386.351 339.415C381.649 330.643 372.256 326.135 369.876 325.105C369.424 327.672 368.006 338.045 372.707 346.818Z" fill="#3F3D56"/>
<path d="M376.069 343.658C386.072 349.713 389.925 361.74 389.925 361.74C389.925 361.74 377.559 363.95 367.556 357.895C357.554 351.84 353.701 339.812 353.701 339.812C353.701 339.812 366.067 337.603 376.069 343.658Z" fill="#00894B"/>
<path d="M215.031 194.543C215.516 193.788 216.154 193.146 216.903 192.656C217.652 192.167 218.495 191.843 219.377 191.705C220.259 191.566 221.161 191.617 222.022 191.854C222.883 192.09 223.685 192.507 224.375 193.077C224.593 193.259 224.798 193.455 224.988 193.666L249.899 190.017L251.285 171.169C251.391 169.723 252.064 168.379 253.155 167.432C254.246 166.485 255.667 166.013 257.104 166.12C258.541 166.227 259.877 166.904 260.818 168.002C261.759 169.099 262.228 170.529 262.122 171.975C262.12 172.008 262.117 172.042 262.114 172.075L259.686 198.522L259.674 198.581C259.358 199.597 258.725 200.484 257.868 201.11C257.011 201.736 255.977 202.067 254.918 202.054L225.618 201.545C225.504 201.72 225.381 201.889 225.25 202.051C224.683 202.745 223.977 203.311 223.178 203.711C222.379 204.112 221.504 204.338 220.612 204.374C219.72 204.411 218.83 204.258 218.001 203.924C217.172 203.591 216.422 203.085 215.801 202.44C215.675 202.31 215.555 202.175 215.442 202.037C214.598 200.99 214.103 199.703 214.029 198.357C213.956 197.011 214.306 195.676 215.031 194.543Z" fill="#FFB7B7"/>
<path d="M265.254 355.241L258.149 355.241L254.769 327.668L265.255 327.668L265.254 355.241Z" fill="#FFB7B7"/>
<path d="M267.066 362.171L244.156 362.17V361.878C244.157 359.499 245.096 357.217 246.768 355.534C248.441 353.852 250.709 352.907 253.073 352.907H253.074L267.066 352.907L267.066 362.171Z" fill="#2F2E41"/>
<path d="M314.9 348.76L308.176 351.067L296.129 326.069L306.054 322.663L314.9 348.76Z" fill="#FFB7B7"/>
<path d="M318.838 354.73L297.156 362.171L297.062 361.895C296.299 359.643 296.456 357.178 297.499 355.042C298.542 352.907 300.385 351.275 302.623 350.507L302.624 350.507L315.867 345.962L318.838 354.73Z" fill="#2F2E41"/>
<path d="M273.077 114.152C273.077 114.152 266.006 111.802 261.46 121.202C256.914 130.601 249.842 140.94 249.842 140.94L253.883 141.88C253.883 141.88 254.893 135.301 257.419 134.361L256.408 142.82C256.408 142.82 286.715 152.689 300.353 141.88L299.848 138.59C299.848 138.59 301.869 139.06 301.869 141.88L303.384 140.47C303.384 140.47 301.869 137.65 297.323 133.891C294.339 131.423 293.314 126.728 292.961 123.793C292.682 121.308 291.623 118.977 289.938 117.139C286.916 113.881 281.412 110.419 273.077 114.152Z" fill="#2F2E41"/>
<path d="M275.684 146.992C282.817 146.992 288.6 141.173 288.6 133.996C288.6 126.819 282.817 121.001 275.684 121.001C268.551 121.001 262.768 126.819 262.768 133.996C262.768 141.173 268.551 146.992 275.684 146.992Z" fill="#FFB7B7"/>
<path d="M258.463 157.693L256.114 156.905C256.114 156.905 251.418 158.874 251.418 162.418C251.418 165.962 250.635 180.139 250.635 180.139L261.202 181.321L258.463 157.693Z" fill="#CBCBCB"/>
<path d="M300.494 235.153C299.52 234.054 298.97 232.641 298.944 231.169C298.919 229.698 299.419 228.266 300.354 227.134L293.762 171.584C293.697 170.274 294.152 168.991 295.026 168.018C295.9 167.045 297.122 166.461 298.424 166.393C299.725 166.326 301.001 166.781 301.969 167.658C302.938 168.536 303.521 169.764 303.591 171.074C303.592 171.092 303.593 171.11 303.594 171.128L309.491 226.738C309.705 226.954 309.902 227.186 310.081 227.432C310.554 228.09 310.893 228.836 311.08 229.626C311.267 230.416 311.297 231.236 311.169 232.037C311.041 232.839 310.757 233.608 310.334 234.3C309.91 234.991 309.356 235.592 308.702 236.068C308.634 236.118 308.565 236.165 308.495 236.212C307.738 236.716 306.879 237.046 305.98 237.176C305.081 237.307 304.165 237.236 303.297 236.968C302.212 236.638 301.242 236.009 300.494 235.153Z" fill="#FFB7B7"/>
<path d="M294.456 180.139L305.023 178.958C305.023 178.958 304.241 164.781 304.241 161.237C304.241 157.693 299.544 155.724 299.544 155.724L297.196 156.511L294.456 180.139Z" fill="#CBCBCB"/>
<path d="M260.028 199.809C260.028 199.809 251.026 216.369 251.026 236.453C251.026 256.537 250.243 348.686 250.243 348.686C250.243 348.686 261.985 354.199 269.03 347.505L275.292 245.51L299.95 345.536C299.95 345.536 311.692 347.899 317.171 343.961L306.604 274.258C306.604 274.258 302.298 208.887 290.557 204.161C278.815 199.436 260.028 199.809 260.028 199.809Z" fill="#2F2E41"/>
<path d="M261.727 134.079C266.299 130.749 270.001 126.914 272.449 122.353C272.449 122.353 280.84 131.733 285.968 132.202C291.096 132.671 286.434 120.946 286.434 120.946L277.111 118.6L268.253 119.538L261.261 124.229L261.727 134.079Z" fill="#2F2E41"/>
<path d="M288.6 153.361C288.6 153.361 288.972 153.159 266.683 153.976L257.354 156.561L256.114 156.905C256.114 156.905 257.288 180.533 260.42 184.865C263.551 189.197 262.768 191.56 261.985 191.953C261.202 192.347 259.245 191.56 260.42 193.529C261.594 195.498 263.159 194.316 261.594 195.498C260.028 196.679 259.245 201.011 259.245 201.011L293.688 205.736C293.688 205.736 294.862 190.378 297.993 182.502C301.124 174.626 301.907 171.476 301.907 171.476L299.559 155.724L288.6 153.361Z" fill="#CBCBCB"/>
<path d="M223.118 86.1892H221.137V31.5967C221.137 23.2167 217.829 15.18 211.939 9.25448C206.05 3.32895 198.063 1.35082e-05 189.734 1.18803e-10L74.7803 1.18807e-10C66.4516 -2.29636e-05 58.4641 3.32888 52.5748 9.25438C46.6855 15.1799 43.377 23.2166 43.377 31.5966V331.096C43.3769 339.476 46.6855 347.512 52.5747 353.438C58.464 359.363 66.4515 362.692 74.7801 362.692H189.734C193.858 362.692 197.941 361.875 201.751 360.287C205.561 358.699 209.023 356.372 211.939 353.438C214.855 350.504 217.168 347.021 218.747 343.187C220.325 339.354 221.137 335.245 221.137 331.096V125.049H223.118L223.118 86.1892Z" fill="#3F3D56"/>
<path d="M214.454 31.8187V330.877C214.456 333.973 213.853 337.039 212.678 339.901C211.503 342.762 209.779 345.363 207.605 347.554C205.432 349.745 202.85 351.484 200.008 352.671C197.166 353.859 194.12 354.471 191.043 354.474H75.4956C69.28 354.478 63.3173 351.998 58.9191 347.579C54.5209 343.16 52.0476 337.164 52.0432 330.91V31.8187C52.041 28.7221 52.6451 25.6554 53.8208 22.7936C54.9966 19.9319 56.7211 17.3312 58.8957 15.1401C61.0704 12.9489 63.6528 11.2101 66.4953 10.0231C69.3379 8.83608 72.3849 8.22399 75.4626 8.22181H89.5073C88.8173 9.92397 88.5539 11.7708 88.7404 13.5995C88.9269 15.4282 89.5576 17.1827 90.5768 18.7084C91.596 20.2341 92.9726 21.4841 94.5851 22.3484C96.1977 23.2127 97.9967 23.6646 99.8238 23.6644H165.681C167.508 23.6646 169.307 23.2127 170.919 22.3484C172.532 21.4841 173.909 20.2341 174.928 18.7084C175.947 17.1827 176.578 15.4282 176.764 13.5995C176.951 11.7708 176.687 9.92397 175.997 8.22181H191.001C197.216 8.2162 203.178 10.6947 207.576 15.112C211.974 19.5294 214.448 25.5237 214.454 31.7764L214.454 31.8187Z" fill="white"/>
<path d="M214.453 76.0635V65.877H199.131V9.67847C196.528 8.71142 193.775 8.21816 191.001 8.22176H189.007V65.877H135.855V23.6644H125.731V65.877H81.1853V8.22181H75.4957C74.0075 8.21948 72.5225 8.36104 71.0612 8.64455V65.877H52.0432V76.0635H71.0612V99.625L52.0435 110.672V122.437L71.0612 111.39V181.493H52.0432V191.679H71.0612V293.034H52.0432V303.221H71.0612V354.051C72.5225 354.335 74.0075 354.476 75.4957 354.474H81.1853V303.221H125.731V354.474H135.855V303.221H189.007V354.474H191.001C193.775 354.478 196.528 353.984 199.131 353.017V303.221H214.453V293.034H199.131V248.724H214.317V238.537H199.131V191.679H214.453V181.493H199.131V119.356H214.453V109.169H199.131V76.0635L214.453 76.0635ZM111.624 76.0635L81.1855 93.7473L81.1852 76.0635H111.624ZM81.1852 105.508L125.731 79.629V181.493H81.1852V105.508ZM81.1852 293.034V191.679H125.731V293.034H81.1852ZM189.007 293.034H135.855V248.723H189.007V293.034ZM189.007 238.537H135.855V191.679H189.007V238.537ZM189.007 181.493H135.855V119.356H189.007V181.493ZM189.007 109.169H135.855V76.0635H189.007V109.169Z" fill="#E5E5E5"/>
<path d="M222.922 109.358C222.922 141.706 164.709 213.769 164.709 213.769C164.709 213.769 106.496 141.706 106.496 109.358C106.496 93.8236 112.629 78.9255 123.546 67.9412C134.463 56.9568 149.27 50.7858 164.709 50.7858C180.148 50.7858 194.955 56.9568 205.872 67.9412C216.789 78.9255 222.922 93.8236 222.922 109.358Z" fill="#00894B"/>
<path d="M199.131 106.811C199.131 113.661 197.113 120.357 193.33 126.053C189.548 131.748 184.172 136.187 177.882 138.809C171.592 141.43 164.671 142.116 157.994 140.78C151.317 139.443 145.184 136.145 140.37 131.301C135.556 126.457 132.277 120.286 130.949 113.568C129.621 106.85 130.303 99.8859 132.908 93.5574C135.513 87.2289 139.925 81.8198 145.586 78.0142C151.246 74.2086 157.902 72.1773 164.71 72.1773C169.228 72.1752 173.702 73.0686 177.877 74.8064C182.053 76.5441 185.847 79.0923 189.043 82.3054C192.239 85.5185 194.775 89.3336 196.506 93.5329C198.237 97.7321 199.129 102.233 199.131 106.779V106.811Z" fill="white"/>
<path d="M164.59 120.483C171.672 120.483 177.414 114.706 177.414 107.58C177.414 100.454 171.672 94.6774 164.59 94.6774C157.507 94.6774 151.766 100.454 151.766 107.58C151.766 114.706 157.507 120.483 164.59 120.483Z" fill="#00894B"/>
<path d="M183.201 137.05C177.673 140.587 171.257 142.465 164.706 142.464C158.155 142.463 151.74 140.583 146.213 137.045C147.362 133.002 149.789 129.445 153.127 126.914C156.464 124.382 160.53 123.013 164.709 123.014C168.888 123.014 172.954 124.385 176.29 126.917C179.627 129.449 182.053 133.006 183.201 137.05Z" fill="#00894B"/>
<path d="M164.709 256.042C173.376 256.042 180.401 248.973 180.401 240.253C180.401 231.533 173.376 224.464 164.709 224.464C156.042 224.464 149.017 231.533 149.017 240.253C149.017 248.973 156.042 256.042 164.709 256.042Z" fill="#00894B"/>
<path d="M407.494 363H0.506203C0.37195 363 0.243195 362.946 0.148264 362.851C0.053332 362.755 0 362.626 0 362.491C0 362.356 0.053332 362.226 0.148264 362.131C0.243195 362.035 0.37195 361.981 0.506203 361.981H407.494C407.628 361.981 407.757 362.035 407.852 362.131C407.947 362.226 408 362.356 408 362.491C408 362.626 407.947 362.755 407.852 362.851C407.757 362.946 407.628 363 407.494 363Z" fill="#CBCBCB"/>
</g>
<defs>
<clipPath id="clip0_2_182">
<rect width="408" height="363" fill="white"/>
</clipPath>
</defs>
</svg>
