<svg width="29" height="32" viewBox="0 0 29 32" fill="none" xmlns="http://www.w3.org/2000/svg">
<path d="M7.13007 6.00265C6.66648 6.0023 6.20738 6.10476 5.77903 6.30418C5.35067 6.50361 4.96146 6.79607 4.63365 7.16485C4.30585 7.53363 4.04588 7.97149 3.86862 8.45339C3.69135 8.9353 3.60028 9.45178 3.60059 9.97332C3.60059 12.9507 7.13007 17.3467 7.13007 17.3467C7.13007 17.3467 10.6595 12.9507 10.6595 9.97332C10.6599 9.45178 10.5688 8.9353 10.3915 8.45339C10.2143 7.97149 9.95429 7.53363 9.62648 7.16485C9.29868 6.79607 8.90947 6.50361 8.48111 6.30418C8.05275 6.10476 7.59365 6.0023 7.13007 6.00265ZM7.13007 11.3906C6.88089 11.3906 6.63731 11.3075 6.43013 11.1518C6.22295 10.996 6.06147 10.7747 5.96612 10.5157C5.87076 10.2567 5.84581 9.97174 5.89442 9.69681C5.94304 9.42187 6.06302 9.16933 6.23922 8.97111C6.41541 8.77289 6.6399 8.6379 6.88428 8.58322C7.12867 8.52853 7.38198 8.5566 7.61219 8.66387C7.8424 8.77115 8.03916 8.95281 8.1776 9.18589C8.31603 9.41897 8.38992 9.69299 8.38992 9.97332C8.38961 10.3491 8.25677 10.7094 8.02057 10.9751C7.78437 11.2409 7.4641 11.3903 7.13007 11.3906ZM24.9173 15.0613V9.32798C24.909 8.72592 24.8277 8.12796 24.6755 7.55065C24.2867 6.02441 23.426 4.70462 22.2487 3.82913C21.0713 2.95364 19.6547 2.58002 18.2542 2.7756C16.8536 2.97119 15.5612 3.72311 14.6099 4.89587C13.6586 6.06863 13.1109 7.5851 13.0655 9.17198V9.50265L13.0536 10.6627V23.932H13.0489V23.9867C13.0489 24.6939 12.7991 25.3722 12.3546 25.8723C11.9101 26.3724 11.3072 26.6533 10.6785 26.6533C10.0499 26.6533 9.44694 26.3724 9.00241 25.8723C8.55788 25.3722 8.30814 24.6939 8.30814 23.9867C8.30814 23.9706 8.3117 23.9546 8.31288 23.9373H8.30814V21.3467H5.93777V24.0133H5.94014C5.94093 25.4271 6.4409 26.7826 7.33007 27.7817C8.21925 28.7808 9.42478 29.3415 10.6815 29.3407C11.9382 29.3398 13.1431 28.7773 14.0311 27.777C14.9192 26.7767 15.4177 25.4204 15.4169 24.0066H15.4193V22.6973H15.4252V11.996L15.437 9.50265V9.17332C15.4708 8.12366 15.8701 7.13104 16.5487 6.40969C17.2274 5.68833 18.1309 5.29609 19.0643 5.31762C19.9978 5.33914 20.8863 5.77271 21.538 6.52475C22.1898 7.27679 22.5526 8.28699 22.5481 9.33732V15.0373C22.0943 15.3262 21.7378 15.7755 21.5341 16.3155C21.3303 16.8555 21.2906 17.4561 21.4211 18.0241C21.5516 18.5921 21.845 19.0958 22.2559 19.457C22.6667 19.8183 23.1721 20.017 23.6935 20.0223C24.215 20.0276 24.7234 19.8391 25.14 19.4862C25.5566 19.1334 25.858 18.6357 25.9976 18.0704C26.1372 17.5052 26.1071 16.9039 25.912 16.3599C25.7169 15.8158 25.3665 15.3594 24.9173 15.0613Z" fill="#636363"/>
</svg>
