<svg width="26" height="26" viewBox="0 0 26 26" fill="none" xmlns="http://www.w3.org/2000/svg">
<path d="M13.0021 5.21958C14.3186 4.06338 16.0332 3.46463 17.7832 3.55002C19.5332 3.6354 21.1814 4.3982 22.3791 5.67706C23.5767 6.95592 24.2299 8.65053 24.2005 10.4024C24.171 12.1542 23.4612 13.8259 22.2213 15.0638L16.5609 20.7242L13 24.283L5.11329 16.3974L3.78079 15.0627C2.54122 13.8247 1.83183 12.153 1.80269 10.4012C1.77355 8.64951 2.42694 6.95514 3.62465 5.67652C4.82235 4.39789 6.47046 3.63529 8.22035 3.55001C9.97024 3.46473 11.6858 4.06347 13.0021 5.21958Z" fill="black"/>
</svg>
