<svg width="349" height="32" viewBox="0 0 349 32" fill="none" xmlns="http://www.w3.org/2000/svg">
<path d="M166.124 5.26479L171.496 24.0178L176.1 14.8302L184.639 11.4226L166.124 5.26479ZM162.995 1.03969L191.481 10.5114C191.628 10.5602 191.757 10.653 191.85 10.7772C191.943 10.9015 191.995 11.0512 192 11.2061C192.004 11.361 191.961 11.5135 191.876 11.6431C191.791 11.7726 191.668 11.8729 191.523 11.9304L178.295 17.2087L171.593 30.5822C171.524 30.7183 171.417 30.8308 171.283 30.9048C171.15 30.9788 170.997 31.0108 170.845 30.9968C170.693 30.9827 170.549 30.9232 170.432 30.826C170.314 30.7289 170.229 30.5986 170.187 30.4522L162.029 1.96147C161.991 1.82945 161.99 1.68973 162.027 1.55731C162.063 1.4249 162.134 1.30479 162.234 1.20988C162.333 1.11497 162.456 1.04884 162.59 1.01859C162.725 0.988337 162.864 0.996621 162.995 1.03969Z" fill="#636363"/>
<path d="M327.13 6.00265C326.666 6.0023 326.207 6.10476 325.779 6.30418C325.351 6.50361 324.961 6.79607 324.634 7.16485C324.306 7.53363 324.046 7.97149 323.869 8.45339C323.691 8.9353 323.6 9.45178 323.601 9.97332C323.601 12.9507 327.13 17.3467 327.13 17.3467C327.13 17.3467 330.66 12.9507 330.66 9.97332C330.66 9.45178 330.569 8.9353 330.392 8.45339C330.214 7.97149 329.954 7.53363 329.626 7.16485C329.299 6.79607 328.909 6.50361 328.481 6.30418C328.053 6.10476 327.594 6.0023 327.13 6.00265ZM327.13 11.3906C326.881 11.3906 326.637 11.3075 326.43 11.1518C326.223 10.996 326.061 10.7747 325.966 10.5157C325.871 10.2567 325.846 9.97174 325.894 9.69681C325.943 9.42187 326.063 9.16933 326.239 8.97111C326.415 8.77289 326.64 8.6379 326.884 8.58322C327.129 8.52853 327.382 8.5566 327.612 8.66387C327.842 8.77115 328.039 8.95281 328.178 9.18589C328.316 9.41897 328.39 9.69299 328.39 9.97332C328.39 10.3491 328.257 10.7094 328.021 10.9751C327.784 11.2409 327.464 11.3903 327.13 11.3906ZM344.917 15.0613V9.32798C344.909 8.72592 344.828 8.12796 344.676 7.55065C344.287 6.02441 343.426 4.70462 342.249 3.82913C341.071 2.95364 339.655 2.58002 338.254 2.7756C336.854 2.97119 335.561 3.72311 334.61 4.89587C333.659 6.06863 333.111 7.5851 333.065 9.17198V9.50265L333.054 10.6627V23.932H333.049V23.9867C333.049 24.6939 332.799 25.3722 332.355 25.8723C331.91 26.3724 331.307 26.6533 330.679 26.6533C330.05 26.6533 329.447 26.3724 329.002 25.8723C328.558 25.3722 328.308 24.6939 328.308 23.9867C328.308 23.9706 328.312 23.9546 328.313 23.9373H328.308V21.3467H325.938V24.0133H325.94C325.941 25.4271 326.441 26.7826 327.33 27.7817C328.219 28.7808 329.425 29.3415 330.681 29.3407C331.938 29.3398 333.143 28.7773 334.031 27.777C334.919 26.7767 335.418 25.4204 335.417 24.0066H335.419V22.6973H335.425V11.996L335.437 9.50265V9.17332C335.471 8.12366 335.87 7.13104 336.549 6.40969C337.227 5.68833 338.131 5.29609 339.064 5.31762C339.998 5.33914 340.886 5.77271 341.538 6.52475C342.19 7.27679 342.553 8.28699 342.548 9.33732V15.0373C342.094 15.3262 341.738 15.7755 341.534 16.3155C341.33 16.8555 341.291 17.4561 341.421 18.0241C341.552 18.5921 341.845 19.0958 342.256 19.457C342.667 19.8183 343.172 20.017 343.694 20.0223C344.215 20.0276 344.723 19.8391 345.14 19.4862C345.557 19.1334 345.858 18.6357 345.998 18.0704C346.137 17.5052 346.107 16.9039 345.912 16.3599C345.717 15.8158 345.366 15.3594 344.917 15.0613Z" fill="black"/>
<path d="M16.1333 24.7333L16 24.8667L15.8533 24.7333C9.51996 18.9867 5.33329 15.1867 5.33329 11.3333C5.33329 8.66667 7.33329 6.66667 9.99996 6.66667C12.0533 6.66667 14.0533 8 14.76 9.81333H17.24C17.9466 8 19.9466 6.66667 22 6.66667C24.6666 6.66667 26.6666 8.66667 26.6666 11.3333C26.6666 15.1867 22.48 18.9867 16.1333 24.7333ZM22 4C19.68 4 17.4533 5.08 16 6.77333C14.5466 5.08 12.32 4 9.99996 4C5.89329 4 2.66663 7.21333 2.66663 11.3333C2.66663 16.36 7.19996 20.48 14.0666 26.7067L16 28.4667L17.9333 26.7067C24.8 20.48 29.3333 16.36 29.3333 11.3333C29.3333 7.21333 26.1066 4 22 4Z" fill="#636363"/>
</svg>
