<svg width="22" height="27" viewBox="0 0 22 27" fill="none" xmlns="http://www.w3.org/2000/svg">
<g filter="url(#filter0_d_98_29)">
<path d="M16.25 9H5.75V4H16.25M14.9375 15C14.5894 15 14.2556 14.842 14.0094 14.5607C13.7633 14.2794 13.625 13.8978 13.625 13.5C13.625 13.1022 13.7633 12.7206 14.0094 12.4393C14.2556 12.158 14.5894 12 14.9375 12C15.2856 12 15.6194 12.158 15.8656 12.4393C16.1117 12.7206 16.25 13.1022 16.25 13.5C16.25 13.8978 16.1117 14.2794 15.8656 14.5607C15.6194 14.842 15.2856 15 14.9375 15ZM7.0625 15C6.7144 15 6.38056 14.842 6.13442 14.5607C5.88828 14.2794 5.75 13.8978 5.75 13.5C5.75 13.1022 5.88828 12.7206 6.13442 12.4393C6.38056 12.158 6.7144 12 7.0625 12C7.4106 12 7.74444 12.158 7.99058 12.4393C8.23672 12.7206 8.375 13.1022 8.375 13.5C8.375 13.8978 8.23672 14.2794 7.99058 14.5607C7.74444 14.842 7.4106 15 7.0625 15ZM4 14C4 14.88 4.34125 15.67 4.875 16.22V18C4.875 18.2652 4.96719 18.5196 5.13128 18.7071C5.29538 18.8946 5.51794 19 5.75 19H6.625C6.85706 19 7.07962 18.8946 7.24372 18.7071C7.40781 18.5196 7.5 18.2652 7.5 18V17H14.5V18C14.5 18.2652 14.5922 18.5196 14.7563 18.7071C14.9204 18.8946 15.1429 19 15.375 19H16.25C16.4821 19 16.7046 18.8946 16.8687 18.7071C17.0328 18.5196 17.125 18.2652 17.125 18V16.22C17.6587 15.67 18 14.88 18 14V4C18 0.5 14.8675 0 11 0C7.1325 0 4 0.5 4 4V14Z" fill="#00894B"/>
</g>
<defs>
<filter id="filter0_d_98_29" x="0" y="0" width="22" height="27" filterUnits="userSpaceOnUse" color-interpolation-filters="sRGB">
<feFlood flood-opacity="0" result="BackgroundImageFix"/>
<feColorMatrix in="SourceAlpha" type="matrix" values="0 0 0 0 0 0 0 0 0 0 0 0 0 0 0 0 0 0 127 0" result="hardAlpha"/>
<feOffset dy="4"/>
<feGaussianBlur stdDeviation="2"/>
<feComposite in2="hardAlpha" operator="out"/>
<feColorMatrix type="matrix" values="0 0 0 0 0 0 0 0 0 0 0 0 0 0 0 0 0 0 0.25 0"/>
<feBlend mode="normal" in2="BackgroundImageFix" result="effect1_dropShadow_98_29"/>
<feBlend mode="normal" in="SourceGraphic" in2="effect1_dropShadow_98_29" result="shape"/>
</filter>
</defs>
</svg>
