<svg width="18" height="19" viewBox="0 0 18 19" fill="none" xmlns="http://www.w3.org/2000/svg">
<path d="M1.84049 12.7146C2.05146 12.9372 2.33756 13.0623 2.63587 13.0623C2.93418 13.0623 3.22027 12.9372 3.43124 12.7146L8.99999 6.83646L14.5687 12.7146C14.7809 12.9309 15.0651 13.0506 15.3601 13.0479C15.655 13.0452 15.9372 12.9203 16.1458 12.7001C16.3544 12.48 16.4727 12.1821 16.4753 11.8708C16.4778 11.5594 16.3644 11.2594 16.1595 11.0355L9.79537 4.31778C9.5844 4.09515 9.2983 3.97009 8.99999 3.97009C8.70168 3.97009 8.41559 4.09515 8.20462 4.31778L1.84049 11.0355C1.62959 11.2582 1.51111 11.5601 1.51111 11.875C1.51111 12.1899 1.62959 12.4919 1.84049 12.7146Z" fill="black"/>
</svg>
