<svg width="30" height="30" viewBox="0 0 30 30" fill="none" xmlns="http://www.w3.org/2000/svg">
<path d="M4.12448 4.2643L9.49568 23.0173L14.1004 13.8297L22.6389 10.4221L4.12448 4.2643ZM0.99506 0.0391999L29.4809 9.51092C29.6284 9.55967 29.7572 9.65247 29.85 9.77673C29.9428 9.90099 29.995 10.0507 29.9997 10.2056C30.0043 10.3605 29.9611 10.513 29.8759 10.6426C29.7907 10.7721 29.6676 10.8724 29.5233 10.9299L16.2953 16.2082L9.59262 29.5817C9.52442 29.7178 9.41657 29.8303 9.2832 29.9043C9.14984 29.9783 8.99718 30.0103 8.84524 29.9963C8.69329 29.9822 8.54915 29.9227 8.43168 29.8256C8.31422 29.7284 8.22892 29.5981 8.18696 29.4517L0.0286676 0.960985C-0.00881833 0.828957 -0.00955501 0.689237 0.0265362 0.556823C0.0626274 0.424409 0.134184 0.3043 0.233525 0.209389C0.332866 0.114478 0.456241 0.0483483 0.590406 0.0180987C0.724572 -0.012151 0.864461 -0.00386758 0.99506 0.0391999Z" fill="#636363"/>
</svg>
