<svg width="27" height="25" viewBox="0 0 27 25" fill="none" xmlns="http://www.w3.org/2000/svg">
<path d="M13.858 21.4855L13.9841 21.3593C17.1841 18.4618 19.875 16.0238 21.7619 13.819C23.6456 11.6179 24.8062 9.5626 24.8062 7.42499C24.8062 4.4454 22.5546 2.19375 19.575 2.19375C17.4209 2.19375 15.3169 3.50822 14.4234 5.37975H12.5766C11.6831 3.50822 9.5791 2.19375 7.42499 2.19375C4.4454 2.19375 2.19375 4.4454 2.19375 7.42499C2.19375 9.56254 3.35431 11.6178 5.23629 13.8189C7.11956 16.0214 9.80372 18.4569 12.9929 21.3507L13.0109 21.3671L13.0113 21.3674L13.1594 21.5021L13.5166 21.8268L13.858 21.4855ZM13.1158 3.13771L13.5 3.58531L13.8842 3.13771C15.263 1.53113 17.379 0.50625 19.575 0.50625C23.454 0.50625 26.4937 3.53369 26.4937 7.42499C26.4937 9.80331 25.4257 12.0072 23.4439 14.4317C21.4566 16.8631 18.6036 19.4542 15.1174 22.6155L15.1167 22.6161L13.5 24.0879L11.8833 22.6161L11.8826 22.6155C8.39636 19.4542 5.54338 16.8631 3.55603 14.4317C1.57425 12.0072 0.50625 9.80331 0.50625 7.42499C0.50625 3.53369 3.54599 0.50625 7.42499 0.50625C9.62095 0.50625 11.737 1.53113 13.1158 3.13771Z" fill="#3D3D3D" stroke="#3D3D3D"/>
</svg>
