<svg width="29" height="32" viewBox="0 0 29 32" fill="none" xmlns="http://www.w3.org/2000/svg">
<path d="M3.43706 3.06666L25.7245 11.424C25.8398 11.467 25.9406 11.5489 26.0132 11.6585C26.0858 11.7682 26.1267 11.9003 26.1303 12.0369C26.134 12.1736 26.1002 12.3082 26.0335 12.4225C25.9668 12.5368 25.8705 12.6253 25.7576 12.676L15.4074 17.3333L10.163 29.1333C10.1096 29.2535 10.0252 29.3527 9.92088 29.418C9.81653 29.4833 9.69709 29.5116 9.5782 29.4992C9.45931 29.4868 9.34652 29.4343 9.25461 29.3485C9.1627 29.2628 9.09596 29.1478 9.06313 29.0187L2.67972 3.88266C2.65012 3.76608 2.64933 3.64263 2.67744 3.52558C2.70556 3.40853 2.76152 3.30233 2.83929 3.2184C2.91707 3.13447 3.01372 3.07599 3.11884 3.04925C3.22396 3.02251 3.33357 3.02853 3.43587 3.06666" fill="#1D1D1D"/>
</svg>
