<svg width="16" height="15" viewBox="0 0 16 15" fill="none" xmlns="http://www.w3.org/2000/svg">
<path d="M10.2032 5.60001C10.976 5.60001 11.6032 6.22721 11.6032 7.00001V10.7992C11.6032 11.7542 11.2238 12.6701 10.5486 13.3454C9.87328 14.0207 8.9574 14.4 8.00241 14.4C7.04742 14.4 6.13154 14.0207 5.45626 13.3454C4.78097 12.6701 4.40161 11.7542 4.40161 10.7992V7.00001C4.40161 6.22721 5.02801 5.60001 5.80161 5.60001H10.2032ZM4.1048 5.60001C3.81666 5.94677 3.64334 6.37448 3.6088 6.82401L3.6008 7.00001V10.7992C3.6008 11.4768 3.7544 12.1184 4.028 12.6912C3.55383 12.8181 3.05683 12.8342 2.57544 12.7383C2.09405 12.6424 1.64116 12.437 1.2518 12.1381C0.862437 11.8393 0.547032 11.4548 0.329971 11.0146C0.11291 10.5743 9.83983e-06 10.0901 0 9.59921V7.00001C1.31237e-05 6.64866 0.132137 6.31015 0.370144 6.05169C0.608152 5.79324 0.934641 5.63372 1.2848 5.60481L1.4 5.60001H4.1048ZM11.9 5.60001H14.6C15.3728 5.60001 16 6.22721 16 7.00001V9.60001C16.0001 10.0905 15.8875 10.5745 15.6707 11.0146C15.454 11.4546 15.139 11.839 14.7501 12.1379C14.3611 12.4368 13.9087 12.6423 13.4277 12.7386C12.9467 12.8348 12.45 12.8191 11.976 12.6928C12.216 12.1904 12.3632 11.6368 12.396 11.0512L12.4032 10.7992V7.00001C12.4032 6.46801 12.2152 5.98001 11.9 5.60001ZM8.00001 0C8.63653 0 9.24698 0.252857 9.69707 0.702945C10.1472 1.15303 10.4 1.76348 10.4 2.4C10.4 3.03652 10.1472 3.64697 9.69707 4.09706C9.24698 4.54715 8.63653 4.80001 8.00001 4.80001C7.36349 4.80001 6.75304 4.54715 6.30295 4.09706C5.85286 3.64697 5.60001 3.03652 5.60001 2.4C5.60001 1.76348 5.85286 1.15303 6.30295 0.702945C6.75304 0.252857 7.36349 0 8.00001 0ZM13.2 0.800001C13.7305 0.800001 14.2392 1.01072 14.6142 1.38579C14.9893 1.76086 15.2 2.26957 15.2 2.8C15.2 3.33044 14.9893 3.83915 14.6142 4.21422C14.2392 4.58929 13.7305 4.80001 13.2 4.80001C12.6696 4.80001 12.1609 4.58929 11.7858 4.21422C11.4107 3.83915 11.2 3.33044 11.2 2.8C11.2 2.26957 11.4107 1.76086 11.7858 1.38579C12.1609 1.01072 12.6696 0.800001 13.2 0.800001ZM2.8 0.800001C3.33044 0.800001 3.83915 1.01072 4.21422 1.38579C4.58929 1.76086 4.80001 2.26957 4.80001 2.8C4.80001 3.33044 4.58929 3.83915 4.21422 4.21422C3.83915 4.58929 3.33044 4.80001 2.8 4.80001C2.26957 4.80001 1.76086 4.58929 1.38579 4.21422C1.01071 3.83915 0.800001 3.33044 0.800001 2.8C0.800001 2.26957 1.01071 1.76086 1.38579 1.38579C1.76086 1.01072 2.26957 0.800001 2.8 0.800001Z" fill="#5F5D5D"/>
</svg>
